<svg xmlns="http://www.w3.org/2000/svg" viewBox="0 0 129.60 30.17" fill="currentColor">
<g transform="translate(0 23.616) scale(0.024 -0.024)"><path transform="translate(0 0)" d="M300 -12Q235 -12 177.0 18.5Q119 49 83.0 107.5Q47 166 47 248Q47 330 83.0 388.5Q119 447 177.0 477.5Q235 508 300 508Q365 508 423.0 477.5Q481 447 517.0 388.5Q553 330 553 248Q553 166 517.0 107.5Q481 49 423.0 18.5Q365 -12 300 -12ZM300 107Q334 107 356.5 124.0Q379 141 390.5 173.0Q402 205 402 248Q402 291 390.5 323.0Q379 355 356.5 372.0Q334 389 300 389Q266 389 243.5 372.0Q221 355 209.5 323.0Q198 291 198 248Q198 205 209.5 173.0Q221 141 243.5 124.0Q266 107 300 107Z"/><path transform="translate(600 0)" d="M93 -205V486H161L168 424H171Q205 456 249.5 477.0Q294 498 339 498Q405 498 449.5 467.5Q494 437 517.0 381.5Q540 326 540 250Q540 168 509.0 109.0Q478 50 428.0 19.0Q378 -12 319 -12Q286 -12 246.5 4.5Q207 21 174 51H171L175 -41V-205ZM305 57Q348 57 382.0 80.0Q416 103 435.5 146.5Q455 190 455 250Q455 303 441.0 343.5Q427 384 397.0 406.5Q367 429 318 429Q285 429 248.5 411.5Q212 394 175 356V114Q210 83 245.5 70.0Q281 57 305 57Z"/><path transform="translate(1200 0)" d="M330 -12Q257 -12 197.5 18.0Q138 48 103.0 105.5Q68 163 68 244Q68 323 103.0 380.0Q138 437 194.5 467.5Q251 498 316 498Q386 498 435.5 469.5Q485 441 511.5 390.0Q538 339 538 270Q538 256 537.0 243.0Q536 230 534 220H123V284H485L464 261Q464 347 424.5 390.0Q385 433 318 433Q273 433 234.5 411.0Q196 389 173.0 347.0Q150 305 150 244Q150 181 175.0 139.0Q200 97 243.0 75.5Q286 54 340 54Q384 54 419.5 66.5Q455 79 488 100L518 46Q482 22 435.5 5.0Q389 -12 330 -12Z"/><path transform="translate(1800 0)" d="M93 0V486H161L168 403H172Q210 444 254.0 471.0Q298 498 355 498Q441 498 482.0 448.0Q523 398 523 302V0H441V291Q441 360 415.0 393.5Q389 427 329 427Q286 427 252.0 405.0Q218 383 175 339V0Z"/><path transform="translate(2400 0)" d="M277 -211Q212 -211 161.5 -197.5Q111 -184 81.5 -156.0Q52 -128 52 -84Q52 -54 71.5 -29.0Q91 -4 129 15V19Q108 33 93.5 53.0Q79 73 79 104Q79 129 95.5 154.0Q112 179 138 197V201Q111 219 92.0 252.0Q73 285 73 328Q73 388 102.5 428.0Q132 468 180.5 488.0Q229 508 285 508Q331 508 367 496H568V388H468Q477 377 483.5 359.5Q490 342 490 323Q490 266 462.5 229.5Q435 193 389.0 175.0Q343 157 285 157Q271 157 253.0 159.5Q235 162 217 167Q205 159 200.0 151.0Q195 143 195 130Q195 111 215.5 102.0Q236 93 279 93H371Q469 93 520.5 64.0Q572 35 572 -32Q572 -84 536.0 -124.5Q500 -165 433.5 -188.0Q367 -211 277 -211ZM285 246Q306 246 323.0 255.0Q340 264 350.0 282.5Q360 301 360 328Q360 354 350.0 372.0Q340 390 323.0 399.5Q306 409 285 409Q265 409 248.0 399.5Q231 390 221.0 372.0Q211 354 211 328Q211 301 221.0 282.5Q231 264 248.0 255.0Q265 246 285 246ZM298 -118Q338 -118 368.0 -110.0Q398 -102 415.0 -88.5Q432 -75 432 -58Q432 -33 410.0 -26.5Q388 -20 345 -20H283Q256 -20 238.5 -18.0Q221 -16 207 -13Q188 -25 180.0 -36.5Q172 -48 172 -62Q172 -89 206.0 -103.5Q240 -118 298 -118Z"/><path transform="translate(3000 0)" d="M406 -12Q329 -12 288.0 32.5Q247 77 247 163V645H81V712H329V157Q329 104 355.0 80.0Q381 56 424 56Q445 56 467.0 61.5Q489 67 516 79L537 17Q504 5 475.0 -3.5Q446 -12 406 -12Z"/><path transform="translate(3600 0)" d="M246 -12Q201 -12 163.0 4.5Q125 21 103.0 52.0Q81 83 81 126Q81 208 163.0 250.5Q245 293 433 308Q432 341 419.5 369.0Q407 397 379.0 413.5Q351 430 304 430Q273 430 242.5 421.5Q212 413 184.5 399.5Q157 386 134 372L102 428Q126 444 160.5 460.5Q195 477 235.0 487.5Q275 498 318 498Q385 498 428.5 473.0Q472 448 493.5 403.5Q515 359 515 298V0H448L441 66H438Q398 34 348.0 11.0Q298 -12 246 -12ZM268 54Q310 54 351.0 73.0Q392 92 433 126V254Q329 245 269.5 229.0Q210 213 185.5 188.5Q161 164 161 132Q161 105 176.0 87.5Q191 70 215.5 62.0Q240 54 268 54Z"/><path transform="translate(4200 0)" d="M310 -12Q239 -12 177.0 11.0Q115 34 71 64L109 118Q151 88 202.0 70.0Q253 52 320 52Q382 52 412.5 75.0Q443 98 443 128Q443 142 437.5 154.0Q432 166 416.5 177.0Q401 188 371.0 198.0Q341 208 291 218Q196 238 148.5 272.0Q101 306 101 360Q101 419 152.0 458.5Q203 498 303 498Q359 498 411.0 479.5Q463 461 499 436L459 383Q426 407 384.0 420.5Q342 434 296 434Q254 434 229.5 424.5Q205 415 194.5 399.0Q184 383 184 364Q184 333 217.5 315.5Q251 298 325 283Q406 266 449.5 245.0Q493 224 509.5 197.0Q526 170 526 133Q526 93 501.0 60.5Q476 28 428.0 8.0Q380 -12 310 -12Z"/><path transform="translate(4800 0)" d="M310 -12Q239 -12 177.0 11.0Q115 34 71 64L109 118Q151 88 202.0 70.0Q253 52 320 52Q382 52 412.5 75.0Q443 98 443 128Q443 142 437.5 154.0Q432 166 416.5 177.0Q401 188 371.0 198.0Q341 208 291 218Q196 238 148.5 272.0Q101 306 101 360Q101 419 152.0 458.5Q203 498 303 498Q359 498 411.0 479.5Q463 461 499 436L459 383Q426 407 384.0 420.5Q342 434 296 434Q254 434 229.5 424.5Q205 415 194.5 399.0Q184 383 184 364Q184 333 217.5 315.5Q251 298 325 283Q406 266 449.5 245.0Q493 224 509.5 197.0Q526 170 526 133Q526 93 501.0 60.5Q476 28 428.0 8.0Q380 -12 310 -12Z"/></g>
</svg>
